# xmcd
#
# Track frame offsets:
#	150
#	19025
#	37650
#	58018
#	75969
#	96358
#	112705
#	129369
#	142780
#
# Disc length: 2071 seconds
#
# Revision: 1
# Processed by: cddbd v1.5.2PL0 Copyright (c) Steve Scherf et al.
# Submitted via: audiograbber 1.83.01
#
DISCID=5a081509
DTITLE=Southerns Rains - Southern Rains
DYEAR=2008
DGENRE=Country
TTITLE0=Walk Softly On This Heart Of Mine
TTITLE1=Last Eight Miles
TTITLE2=One City Limit At A Time
TTITLE3=An Empty Glass
TTITLE4=Southern Rains
TTITLE5=Cool Water
TTITLE6=Tryin' Stuff On
TTITLE7=I Can't Stop Loving You
TTITLE8=Golden Stairs
EXTD=
EXTT0=
EXTT1=
EXTT2=
EXTT3=
EXTT4=
EXTT5=
EXTT6=
EXTT7=
EXTT8=
PLAYORDER=
